<svg height="15" viewBox="0 0 15 15" width="15" xmlns="http://www.w3.org/2000/svg"><path fill="#fff" d="m465.552794 595.00006c-.014446.000861-.028796.002368-.043145.004844-.102179.013242-.196269.068363-.264071.154812-.067799.086555-.104395.198089-.102662.313056v1.543373c-.001541.123913.041412.243412.119225.331577.077814.088278.184137.138016.294987.138016s.217169-.049738.294987-.138016c.077814-.088171.120766-.207672.119225-.331577v-1.543373c.002312-.125313-.04093-.246319-.119804-.335353-.078777-.08914-.186639-.138661-.298735-.137395zm-5.037558 1.657554c-.097284.009484-.187131.056111-.251131.130126-.063911.074016-.096928.169839-.092237.267611.004603.097772.04665.189959.117378.257512l.888293.889606c.09631.096443.236786.134116.368334.098837.131629-.035369.234406-.138283.269713-.270084.035231-.131722-.002391-.272398-.098701-.368841l-.888384-.889515c-.071879-.073927-.170577-.1155-.27361-.115234-.01319-.000621-.026469-.000621-.039657 0zm9.204857-.000216c-.098972.002925-.192893.044238-.261919.11525l-.889237.889641c-.096403.096456-.134061.237145-.098796.368893.035354.131829.138225.234762.269972.270122.131667.035284.272285-.002394.368688-.098851l.889146-.889732c.074339-.07181.116339-.170747.116339-.274207 0-.103371-.042-.20231-.11625-.274207-.074339-.071811-.17464-.110463-.277956-.106916zm-10.768822 4.971772c-.122092.005675-.236695.054733-.318448.136399-.08186.081666-.124235.189112-.117921.298873.006421.109753.060995.212677.151842.286264.090741.07349.210373.11158.332474.105907h1.534031c.123164.001539.241939-.041363.32957-.119084.087744-.077721.137181-.183918.137181-.294637 0-.110718-.049437-.21691-.137181-.294636-.087637-.077721-.206415-.120623-.32957-.119084h-1.534031c-.015944-.000769-.031996-.000769-.047939 0zm11.599928 0c-.122097.005675-.236597.054733-.318459.136399-.081863.081666-.124239.189112-.117818.298873.006314.109753.06089.212677.15174.286264.090851.07349.21038.11158.332485.105907h1.534084c.123167.001539.241946-.041363.32969-.119084.087745-.077721.137079-.183918.137079-.294637 0-.110718-.049332-.21691-.137079-.294636-.087746-.077726-.206528-.120623-.32969-.119084h-1.534084c-.015944-.000769-.031996-.000769-.04794 0zm-9.116741 3.31394c-.098974.002926-.192986.044239-.262016.115165l-.889168.889753c-.096493.096459-.134152.237061-.098797.368902.035266.131833.138137.234768.269887.270038.131759.035374.272292-.002305.368696-.098853l.889259-.889663c.074252-.071812.116252-.17084.116252-.274214 0-.103373-.041912-.202403-.116252-.274214-.074341-.071901-.174644-.110466-.277872-.106918zm7.366558.000287c-.097282.009484-.187215.05611-.251125.130124-.06391.074015-.096927.169836-.092324.267606.004691.097682.046737.189957.117375.257508l.888366.889501c.096308.096529.23669.134202.368326.098835.131627-.035279.234402-.13819.269617-.269989.035318-.131808-.002302-.272394-.098699-.368834l-.888275-.889592c-.071877-.073837-.170574-.115409-.273605-.115143-.013189-.000709-.026467-.000709-.039656 0zm-3.248215 1.656627c.112096-.001266.219958.048257.298735.137294.078874.089037.122116.210048.119804.335367v1.543437c.001541.123913-.041406.24342-.119225.331702-.077818.088281-.184137.137914-.294987.137914s-.217173-.049635-.294987-.137914c-.077813-.08828-.120766-.207783-.119225-.331702v-1.543437c-.001733-.11497.034861-.226508.102662-.31296.067802-.086452.161892-.141683.264071-.154818.014349-.002476.028699-.004091.043145-.004844zm.004342-8.285715c2.059233 0 3.728571 1.669339 3.728571 3.728572s-1.669338 3.728571-3.728571 3.728571-3.728572-1.669338-3.728572-3.728571 1.669339-3.728572 3.728572-3.728572z" transform="translate(-458 -595)"/></svg>