<svg height="13" viewBox="0 0 13 13" width="13" xmlns="http://www.w3.org/2000/svg"><path d="m444.386026 601.704596c0 3.418296-2.779772 6.199987-6.192422 6.199987-3.261283 0-5.972138-2.546423-6.192309-5.798649-.013726-.166041.082549-.332167.247643-.401289.151372-.069216.344017-.04151.467839.083021.811856.816491 1.802625 1.259397 2.793419 1.259397 2.201759 0 3.976839-1.799128 3.976839-3.999545 0-1.010241-.440391-2.006668-1.252247-2.823208-.123824-.124532-.151373-.304464-.08255-.456696.068823-.152237.23392-.249057.399011-.249057 3.275289.179844 5.834777 2.906244 5.834777 6.186148z" transform="translate(-432 -595)"/></svg>