<svg height="54" viewBox="0 0 60 54" width="60" xmlns="http://www.w3.org/2000/svg"><path d="m718.07254 25v6.8603808h-5.193832v13.0091211h14.162155v-13.0091211h-5.196958v-6.8603808h22.727186v6.8426159h-5.52939v39.4714856h5.533558v6.8415709h-22.731354v-6.8415709h5.196958v-13.3832288h-14.162155v13.3832288h5.193832v6.8415709h-22.744902v-6.8415709h5.54919v-39.4537207h-5.506463v-6.8603808zm-1.395373 1.399246h-19.911429v4.0629338h5.506463v42.2511677h-5.549189v4.0441239h19.954155v-4.0441239h-5.193833v-16.1817207h16.952903v16.1817207h-5.196959v4.0441239h19.940607v-4.0441239h-5.533557v-42.2689326h5.529389v-4.0451689h-19.936439v4.0629338h5.196959v15.8065681h-16.952903v-15.8065681h5.193833zm-9.267198 20.1445441 1.202584 3.4725127 3.667155.0752395-2.922052 2.2216556 1.062943 3.5205824-3.01063-2.1014815-3.009589 2.1014815 1.063986-3.5205824-2.924136-2.2216556 3.666112-.0752395zm12.542418 0 1.203626 3.4725127 3.664028.0752395-2.919967 2.2216556 1.061901 3.5205824-3.009588-2.1014815-3.008547 2.1014815 1.060859-3.5205824-2.919967-2.2216556 3.664028-.0752395zm12.540959 0 1.202584 3.4725127 3.668197.0752395-2.923094 2.2216556 1.061901 3.5205824-3.009588-2.1014815-3.009589 2.1014815 1.061901-3.5205824-2.922052-2.2216556 3.666113-.0752395zm12.542417 0 1.203627 3.4725127 3.666113.0752395-2.92101 2.2216556 1.060859 3.5205824-3.009589-2.1014815-3.01063 2.1014815 1.062943-3.5205824-2.922052-2.2216556 3.666113-.0752395zm-50.168108 0 1.203627 3.4725127 3.666112.0752395-2.924136 2.2216556 1.063985 3.5205824-3.009588-2.1014815-3.009588 2.1014815 1.061901-3.5205824-2.919968-2.2216556 3.664028-.0752395z" fill-rule="evenodd" transform="translate(-690 -25)"/></svg>